<?xml version="1.0" encoding="UTF-8"?>
<!-- Generator: Adobe Illustrator 17.1.0, SVG Export Plug-In . SVG Version: 6.00 Build 0)  -->
<!DOCTYPE svg PUBLIC "-//W3C//DTD SVG 1.1//EN" "http://www.w3.org/Graphics/SVG/1.1/DTD/svg11.dtd">
<svg version="1.1" id="Layer_1" xmlns="http://www.w3.org/2000/svg" xmlns:xlink="http://www.w3.org/1999/xlink" x="0px" y="0px" width="29.4px" height="103.8px" viewBox="28.7 19.3 29.4 103.8" enable-background="new 28.7 19.3 29.4 103.8" xml:space="preserve">
<path fill="#39424F" d="M35.7,115.3h15.3v5.8c0,1.1-0.9,2.1-2.1,2.1H37.7c-1.1,0-2.1-0.9-2.1-2.1V115.3z"/>
<path fill="#39424F" d="M37.7,19.3H49c1.1,0,2.1,0.9,2.1,2.1v5.8H35.7v-5.8C35.7,20.2,36.6,19.3,37.7,19.3z"/>
<path fill="#485261" d="M34,23.1h18.7v95.7H34V23.1z"/>
<path fill="#5B6576" d="M58,26.7L52.6,23v95.7l5.5-3V26.7z"/>
<path fill="#5B6576" d="M28.7,26.7l5.5-3.8v95.7l-5.5-3V26.7z"/>
<path fill="#A8B2C0" d="M48.6,120.1c0.4,0,0.7,0.3,0.7,0.7c0,0.4-0.3,0.7-0.7,0.7c-0.4,0-0.7-0.3-0.7-0.7  C47.9,120.4,48.2,120.1,48.6,120.1z"/>
<path fill="#A8B2C0" d="M37.7,120.1c0.4,0,0.7,0.3,0.7,0.7c0,0.4-0.3,0.7-0.7,0.7s-0.7-0.3-0.7-0.7  C37.1,120.4,37.4,120.1,37.7,120.1z"/>
<path fill="#A8B2C0" d="M48.6,21c0.4,0,0.7,0.3,0.7,0.7c0,0.4-0.3,0.7-0.7,0.7c-0.4,0-0.7-0.3-0.7-0.7C47.8,21.3,48.2,21,48.6,21z"/>
<path fill="#A8B2C0" d="M37.7,21c0.4,0,0.7,0.3,0.7,0.7c0,0.4-0.3,0.7-0.7,0.7s-0.7-0.3-0.7-0.7C37,21.3,37.4,21,37.7,21z"/>
<path fill="#444C5B" d="M53.7,114.2h0.7v-2.1h-0.7V114.2z"/>
<path fill="#444C5B" d="M55,114.2h0.7v-2.1H55V114.2z"/>
<path fill="#444C5B" d="M56.3,114.2H57v-2.1h-0.7V114.2z"/>
<path fill="#444C5B" d="M53.7,111.6h0.7v-2.1h-0.7V111.6z"/>
<path fill="#444C5B" d="M55,111.6h0.7v-2.1H55V111.6z"/>
<path fill="#444C5B" d="M56.3,111.6H57v-2.1h-0.7V111.6z"/>
<path fill="#444C5B" d="M53.7,108.9h0.7v-2.1h-0.7V108.9z"/>
<path fill="#444C5B" d="M55,108.9h0.7v-2.1H55V108.9z"/>
<path fill="#444C5B" d="M56.3,108.9H57v-2.1h-0.7V108.9z"/>
<path fill="#444C5B" d="M53.7,106.1h0.7V104h-0.7V106.1z"/>
<path fill="#444C5B" d="M55,106.1h0.7V104H55V106.1z"/>
<path fill="#444C5B" d="M56.3,106.1H57V104h-0.7V106.1z"/>
<path fill="#444C5B" d="M53.7,103.4h0.7v-2.1h-0.7V103.4z"/>
<path fill="#444C5B" d="M55,103.4h0.7v-2.1H55V103.4z"/>
<path fill="#444C5B" d="M56.3,103.4H57v-2.1h-0.7V103.4z"/>
<path fill="#444C5B" d="M53.7,100.7h0.7v-2.1h-0.7V100.7z"/>
<path fill="#444C5B" d="M55,100.7h0.7v-2.1H55V100.7z"/>
<path fill="#444C5B" d="M56.3,100.7H57v-2.1h-0.7V100.7z"/>
<path fill="#444C5B" d="M53.7,98h0.7v-2.1h-0.7V98z"/>
<path fill="#444C5B" d="M55,98h0.7v-2.1H55V98z"/>
<path fill="#444C5B" d="M56.3,98H57v-2.1h-0.7V98z"/>
<path fill="#444C5B" d="M53.7,95.3h0.7v-2.1h-0.7V95.3z"/>
<path fill="#444C5B" d="M55,95.3h0.7v-2.1H55V95.3z"/>
<path fill="#444C5B" d="M56.3,95.3H57v-2.1h-0.7V95.3z"/>
<path fill="#444C5B" d="M53.7,92.5h0.7v-2.1h-0.7V92.5z"/>
<path fill="#444C5B" d="M55,92.5h0.7v-2.1H55V92.5z"/>
<path fill="#444C5B" d="M56.3,92.5H57v-2.1h-0.7V92.5z"/>
<path fill="#444C5B" d="M53.7,89.9h0.7v-2.1h-0.7V89.9z"/>
<path fill="#444C5B" d="M55,89.9h0.7v-2.1H55V89.9z"/>
<path fill="#444C5B" d="M56.3,89.9H57v-2.1h-0.7V89.9z"/>
<path fill="#444C5B" d="M53.7,87.2h0.7v-2.1h-0.7V87.2z"/>
<path fill="#444C5B" d="M55,87.2h0.7v-2.1H55V87.2z"/>
<path fill="#444C5B" d="M56.3,87.2H57v-2.1h-0.7V87.2z"/>
<path fill="#444C5B" d="M53.7,84.4h0.7v-2.1h-0.7V84.4z"/>
<path fill="#444C5B" d="M55,84.4h0.7v-2.1H55V84.4z"/>
<path fill="#444C5B" d="M56.3,84.4H57v-2.1h-0.7V84.4z"/>
<path fill="#444C5B" d="M53.7,81.7h0.7v-2.1h-0.7V81.7z"/>
<path fill="#444C5B" d="M55,81.7h0.7v-2.1H55V81.7z"/>
<path fill="#444C5B" d="M56.3,81.7H57v-2.1h-0.7V81.7z"/>
<path fill="#444C5B" d="M53.7,79h0.7V77h-0.7V79z"/>
<path fill="#444C5B" d="M55,79h0.7V77H55V79z"/>
<path fill="#444C5B" d="M56.3,79H57V77h-0.7V79z"/>
<path fill="#444C5B" d="M53.7,76.3h0.7v-2.1h-0.7V76.3z"/>
<path fill="#444C5B" d="M55,76.3h0.7v-2.1H55V76.3z"/>
<path fill="#444C5B" d="M56.3,76.3H57v-2.1h-0.7V76.3z"/>
<path fill="#444C5B" d="M53.7,73.6h0.7v-2.1h-0.7V73.6z"/>
<path fill="#444C5B" d="M55,73.6h0.7v-2.1H55V73.6z"/>
<path fill="#444C5B" d="M56.3,73.6H57v-2.1h-0.7V73.6z"/>
<path fill="#444C5B" d="M53.7,70.8h0.7v-2.1h-0.7V70.8z"/>
<path fill="#444C5B" d="M55,70.8h0.7v-2.1H55V70.8z"/>
<path fill="#444C5B" d="M56.3,70.8H57v-2.1h-0.7V70.8z"/>
<path fill="#444C5B" d="M53.7,68.2h0.7v-2.1h-0.7V68.2z"/>
<path fill="#444C5B" d="M55,68.2h0.7v-2.1H55V68.2z"/>
<path fill="#444C5B" d="M56.3,68.2H57v-2.1h-0.7V68.2z"/>
<path fill="#444C5B" d="M53.7,65.4h0.7v-2.1h-0.7V65.4z"/>
<path fill="#444C5B" d="M55,65.4h0.7v-2.1H55V65.4z"/>
<path fill="#444C5B" d="M56.3,65.4H57v-2.1h-0.7V65.4z"/>
<path fill="#444C5B" d="M53.7,62.7h0.7v-2.1h-0.7V62.7z"/>
<path fill="#444C5B" d="M55,62.7h0.7v-2.1H55V62.7z"/>
<path fill="#444C5B" d="M56.3,62.7H57v-2.1h-0.7V62.7z"/>
<path fill="#444C5B" d="M53.7,60h0.7v-2.1h-0.7V60z"/>
<path fill="#444C5B" d="M55,60h0.7v-2.1H55V60z"/>
<path fill="#444C5B" d="M56.3,60H57v-2.1h-0.7V60z"/>
<path fill="#444C5B" d="M53.7,57.3h0.7v-2.1h-0.7V57.3z"/>
<path fill="#444C5B" d="M55,57.3h0.7v-2.1H55V57.3z"/>
<path fill="#444C5B" d="M56.3,57.3H57v-2.1h-0.7V57.3z"/>
<path fill="#444C5B" d="M53.7,54.6h0.7v-2.1h-0.7V54.6z"/>
<path fill="#444C5B" d="M55,54.6h0.7v-2.1H55V54.6z"/>
<path fill="#444C5B" d="M56.3,54.6H57v-2.1h-0.7V54.6z"/>
<path fill="#444C5B" d="M53.7,51.9h0.7v-2.1h-0.7V51.9z"/>
<path fill="#444C5B" d="M55,51.9h0.7v-2.1H55V51.9z"/>
<path fill="#444C5B" d="M56.3,51.9H57v-2.1h-0.7V51.9z"/>
<path fill="#444C5B" d="M53.7,49.1h0.7V47h-0.7V49.1z"/>
<path fill="#444C5B" d="M55,49.1h0.7V47H55V49.1z"/>
<path fill="#444C5B" d="M56.3,49.1H57V47h-0.7V49.1z"/>
<path fill="#444C5B" d="M53.7,46.5h0.7v-2.1h-0.7V46.5z"/>
<path fill="#444C5B" d="M55,46.5h0.7v-2.1H55V46.5z"/>
<path fill="#444C5B" d="M56.3,46.5H57v-2.1h-0.7V46.5z"/>
<path fill="#444C5B" d="M53.7,43.7h0.7v-2.1h-0.7V43.7z"/>
<path fill="#444C5B" d="M55,43.7h0.7v-2.1H55V43.7z"/>
<path fill="#444C5B" d="M56.3,43.7H57v-2.1h-0.7V43.7z"/>
<path fill="#444C5B" d="M53.7,41h0.7v-2.1h-0.7V41z"/>
<path fill="#444C5B" d="M55,41h0.7v-2.1H55V41z"/>
<path fill="#444C5B" d="M56.3,41H57v-2.1h-0.7V41z"/>
<path fill="#444C5B" d="M53.7,38.3h0.7v-2.1h-0.7V38.3z"/>
<path fill="#444C5B" d="M55,38.3h0.7v-2.1H55V38.3z"/>
<path fill="#444C5B" d="M56.3,38.3H57v-2.1h-0.7V38.3z"/>
<path fill="#444C5B" d="M53.7,35.6h0.7v-2.1h-0.7V35.6z"/>
<path fill="#444C5B" d="M55,35.6h0.7v-2.1H55V35.6z"/>
<path fill="#444C5B" d="M56.3,35.6H57v-2.1h-0.7V35.6z"/>
<path fill="#444C5B" d="M53.7,32.9h0.7v-2.1h-0.7V32.9z"/>
<path fill="#444C5B" d="M55,32.9h0.7v-2.1H55V32.9z"/>
<path fill="#444C5B" d="M56.3,32.9H57v-2.1h-0.7V32.9z"/>
<path fill="#444C5B" d="M53.7,30.1h0.7v-2.1h-0.7V30.1z"/>
<path fill="#444C5B" d="M55,30.1h0.7v-2.1H55V30.1z"/>
<path fill="#444C5B" d="M56.3,30.1H57v-2.1h-0.7V30.1z"/>
<path fill="#444C5B" d="M33.3,114.2h-0.7v-2.1h0.7V114.2z"/>
<path fill="#444C5B" d="M32,114.2h-0.7v-2.1H32V114.2z"/>
<path fill="#444C5B" d="M30.6,114.2h-0.7v-2.1h0.7V114.2z"/>
<path fill="#444C5B" d="M33.3,111.6h-0.7v-2.1h0.7V111.6z"/>
<path fill="#444C5B" d="M32,111.6h-0.7v-2.1H32V111.6z"/>
<path fill="#444C5B" d="M30.6,111.6h-0.7v-2.1h0.7V111.6z"/>
<path fill="#444C5B" d="M33.3,108.9h-0.7v-2.1h0.7V108.9z"/>
<path fill="#444C5B" d="M32,108.9h-0.7v-2.1H32V108.9z"/>
<path fill="#444C5B" d="M30.6,108.9h-0.7v-2.1h0.7V108.9z"/>
<path fill="#444C5B" d="M33.3,106.1h-0.7V104h0.7V106.1z"/>
<path fill="#444C5B" d="M32,106.1h-0.7V104H32V106.1z"/>
<path fill="#444C5B" d="M30.6,106.1h-0.7V104h0.7V106.1z"/>
<path fill="#444C5B" d="M33.3,103.4h-0.7v-2.1h0.7V103.4z"/>
<path fill="#444C5B" d="M32,103.4h-0.7v-2.1H32V103.4z"/>
<path fill="#444C5B" d="M30.6,103.4h-0.7v-2.1h0.7V103.4z"/>
<path fill="#444C5B" d="M33.3,100.7h-0.7v-2.1h0.7V100.7z"/>
<path fill="#444C5B" d="M32,100.7h-0.7v-2.1H32V100.7z"/>
<path fill="#444C5B" d="M30.6,100.7h-0.7v-2.1h0.7V100.7z"/>
<path fill="#444C5B" d="M33.3,98h-0.7v-2.1h0.7V98z"/>
<path fill="#444C5B" d="M32,98h-0.7v-2.1H32V98z"/>
<path fill="#444C5B" d="M30.6,98h-0.7v-2.1h0.7V98z"/>
<path fill="#444C5B" d="M33.3,95.3h-0.7v-2.1h0.7V95.3z"/>
<path fill="#444C5B" d="M32,95.3h-0.7v-2.1H32V95.3z"/>
<path fill="#444C5B" d="M30.6,95.3h-0.7v-2.1h0.7V95.3z"/>
<path fill="#444C5B" d="M33.3,92.5h-0.7v-2.1h0.7V92.5z"/>
<path fill="#444C5B" d="M32,92.5h-0.7v-2.1H32V92.5z"/>
<path fill="#444C5B" d="M30.6,92.5h-0.7v-2.1h0.7V92.5z"/>
<path fill="#444C5B" d="M33.3,89.9h-0.7v-2.1h0.7V89.9z"/>
<path fill="#444C5B" d="M32,89.9h-0.7v-2.1H32V89.9z"/>
<path fill="#444C5B" d="M30.6,89.9h-0.7v-2.1h0.7V89.9z"/>
<path fill="#444C5B" d="M33.3,87.2h-0.7v-2.1h0.7V87.2z"/>
<path fill="#444C5B" d="M32,87.2h-0.7v-2.1H32V87.2z"/>
<path fill="#444C5B" d="M30.6,87.2h-0.7v-2.1h0.7V87.2z"/>
<path fill="#444C5B" d="M33.3,84.4h-0.7v-2.1h0.7V84.4z"/>
<path fill="#444C5B" d="M32,84.4h-0.7v-2.1H32V84.4z"/>
<path fill="#444C5B" d="M30.6,84.4h-0.7v-2.1h0.7V84.4z"/>
<path fill="#444C5B" d="M33.3,81.7h-0.7v-2.1h0.7V81.7z"/>
<path fill="#444C5B" d="M32,81.7h-0.7v-2.1H32V81.7z"/>
<path fill="#444C5B" d="M30.6,81.7h-0.7v-2.1h0.7V81.7z"/>
<path fill="#444C5B" d="M33.3,79h-0.7V77h0.7V79z"/>
<path fill="#444C5B" d="M32,79h-0.7V77H32V79z"/>
<path fill="#444C5B" d="M30.6,79h-0.7V77h0.7V79z"/>
<path fill="#444C5B" d="M33.3,76.3h-0.7v-2.1h0.7V76.3z"/>
<path fill="#444C5B" d="M32,76.3h-0.7v-2.1H32V76.3z"/>
<path fill="#444C5B" d="M30.6,76.3h-0.7v-2.1h0.7V76.3z"/>
<path fill="#444C5B" d="M33.3,73.6h-0.7v-2.1h0.7V73.6z"/>
<path fill="#444C5B" d="M32,73.6h-0.7v-2.1H32V73.6z"/>
<path fill="#444C5B" d="M30.6,73.6h-0.7v-2.1h0.7V73.6z"/>
<path fill="#444C5B" d="M33.3,70.8h-0.7v-2.1h0.7V70.8z"/>
<path fill="#444C5B" d="M32,70.8h-0.7v-2.1H32V70.8z"/>
<path fill="#444C5B" d="M30.6,70.8h-0.7v-2.1h0.7V70.8z"/>
<path fill="#444C5B" d="M33.3,68.2h-0.7v-2.1h0.7V68.2z"/>
<path fill="#444C5B" d="M32,68.2h-0.7v-2.1H32V68.2z"/>
<path fill="#444C5B" d="M30.6,68.2h-0.7v-2.1h0.7V68.2z"/>
<path fill="#444C5B" d="M33.3,65.4h-0.7v-2.1h0.7V65.4z"/>
<path fill="#444C5B" d="M32,65.4h-0.7v-2.1H32V65.4z"/>
<path fill="#444C5B" d="M30.6,65.4h-0.7v-2.1h0.7V65.4z"/>
<path fill="#444C5B" d="M33.3,62.7h-0.7v-2.1h0.7V62.7z"/>
<path fill="#444C5B" d="M32,62.7h-0.7v-2.1H32V62.7z"/>
<path fill="#444C5B" d="M30.6,62.7h-0.7v-2.1h0.7V62.7z"/>
<path fill="#444C5B" d="M33.3,60h-0.7v-2.1h0.7V60z"/>
<path fill="#444C5B" d="M32,60h-0.7v-2.1H32V60z"/>
<path fill="#444C5B" d="M30.6,60h-0.7v-2.1h0.7V60z"/>
<path fill="#444C5B" d="M33.3,57.3h-0.7v-2.1h0.7V57.3z"/>
<path fill="#444C5B" d="M32,57.3h-0.7v-2.1H32V57.3z"/>
<path fill="#444C5B" d="M30.6,57.3h-0.7v-2.1h0.7V57.3z"/>
<path fill="#444C5B" d="M33.3,54.6h-0.7v-2.1h0.7V54.6z"/>
<path fill="#444C5B" d="M32,54.6h-0.7v-2.1H32V54.6z"/>
<path fill="#444C5B" d="M30.6,54.6h-0.7v-2.1h0.7V54.6z"/>
<path fill="#444C5B" d="M33.3,51.9h-0.7v-2.1h0.7V51.9z"/>
<path fill="#444C5B" d="M32,51.9h-0.7v-2.1H32V51.9z"/>
<path fill="#444C5B" d="M30.6,51.9h-0.7v-2.1h0.7V51.9z"/>
<path fill="#444C5B" d="M33.3,49.1h-0.7V47h0.7V49.1z"/>
<path fill="#444C5B" d="M32,49.1h-0.7V47H32V49.1z"/>
<path fill="#444C5B" d="M30.6,49.1h-0.7V47h0.7V49.1z"/>
<path fill="#444C5B" d="M33.3,46.5h-0.7v-2.1h0.7V46.5z"/>
<path fill="#444C5B" d="M32,46.5h-0.7v-2.1H32V46.5z"/>
<path fill="#444C5B" d="M30.6,46.5h-0.7v-2.1h0.7V46.5z"/>
<path fill="#444C5B" d="M33.3,43.7h-0.7v-2.1h0.7V43.7z"/>
<path fill="#444C5B" d="M32,43.7h-0.7v-2.1H32V43.7z"/>
<path fill="#444C5B" d="M30.6,43.7h-0.7v-2.1h0.7V43.7z"/>
<path fill="#444C5B" d="M33.3,41h-0.7v-2.1h0.7V41z"/>
<path fill="#444C5B" d="M32,41h-0.7v-2.1H32V41z"/>
<path fill="#444C5B" d="M30.6,41h-0.7v-2.1h0.7V41z"/>
<path fill="#444C5B" d="M33.3,38.3h-0.7v-2.1h0.7V38.3z"/>
<path fill="#444C5B" d="M32,38.3h-0.7v-2.1H32V38.3z"/>
<path fill="#444C5B" d="M30.6,38.3h-0.7v-2.1h0.7V38.3z"/>
<path fill="#444C5B" d="M33.3,35.6h-0.7v-2.1h0.7V35.6z"/>
<path fill="#444C5B" d="M32,35.6h-0.7v-2.1H32V35.6z"/>
<path fill="#444C5B" d="M30.6,35.6h-0.7v-2.1h0.7V35.6z"/>
<path fill="#444C5B" d="M33.3,32.9h-0.7v-2.1h0.7V32.9z"/>
<path fill="#444C5B" d="M32,32.9h-0.7v-2.1H32V32.9z"/>
<path fill="#444C5B" d="M30.6,32.9h-0.7v-2.1h0.7V32.9z"/>
<path fill="#444C5B" d="M33.3,30.1h-0.7v-2.1h0.7V30.1z"/>
<path fill="#444C5B" d="M32,30.1h-0.7v-2.1H32V30.1z"/>
<path fill="#444C5B" d="M30.6,30.1h-0.7v-2.1h0.7V30.1z"/>
<g>
	<path fill="#39424F" d="M52.3,29.1v20h-7.8v-20H52.3 M52.6,28.8h-8.5v20.7h8.5V28.8L52.6,28.8z"/>
</g>
<path fill="#F2B85D" d="M42.3,33.7c0.3,0,0.5,0.3,0.5,0.6c0,0.3-0.3,0.6-0.5,0.6c-0.2,0-0.5-0.3-0.5-0.6C41.8,34,42,33.7,42.3,33.7z  "/>
<path fill="#3FAC9A" d="M42.3,31.7c0.3,0,0.5,0.3,0.5,0.6c0,0.3-0.3,0.6-0.5,0.6c-0.2,0-0.5-0.3-0.5-0.6S42,31.7,42.3,31.7z"/>
<path fill="#3FAC9A" d="M42.3,29.8c0.3,0,0.5,0.3,0.5,0.6c0,0.3-0.3,0.6-0.5,0.6c-0.2,0-0.5-0.3-0.5-0.6  C41.8,30.1,42,29.8,42.3,29.8z"/>
<path fill="#39424F" d="M50.1,104.8h1.1v11.9h-1.1V104.8z"/>
<path fill="#39424F" d="M48.6,104.8h1.1v11.9h-1.1V104.8z"/>
<path fill="#39424F" d="M47,104.8h1.1v11.9H47V104.8L47,104.8z"/>
<path fill="#39424F" d="M45.5,104.8h1.1v11.9h-1.1V104.8z"/>
<path fill="#39424F" d="M43.8,104.8h1.1v11.9h-1.1V104.8z"/>
<path fill="#39424F" d="M42.4,104.8h1.1v11.9h-1.1V104.8z"/>
<path fill="#39424F" d="M40.8,104.8H42v11.9h-1.1V104.8z"/>
<path fill="#39424F" d="M39.2,104.8h1.1v11.9h-1.1V104.8z"/>
<path fill="#39424F" d="M37.6,104.8h1.1v11.9h-1.1V104.8z"/>
<path fill="#39424F" d="M36,104.8h1.1v11.9H36V104.8z"/>
<polygon fill="#39424F" points="50.1,77.9 48.9,77.9 48.9,77.5 49.7,77.5 49.7,74.1 48.9,74.1 48.9,73.7 50.1,73.7 "/>
<path fill="#39424F" d="M50.8,78.6H48v-5.5h2.7V78.6z M48.4,78.2h2v-4.7h-2V78.2z"/>
<polygon fill="#39424F" points="46,77.9 44.8,77.9 44.8,77.5 45.7,77.5 45.7,74.1 44.8,74.1 44.8,73.7 46,73.7 "/>
<path fill="#39424F" d="M46.7,78.6H44v-5.5h2.7V78.6z M44.3,78.2h2v-4.7h-2V78.2z"/>
<polygon fill="#39424F" points="42.3,77.9 41.1,77.9 41.1,77.5 41.9,77.5 41.9,74.1 41.1,74.1 41.1,73.7 42.3,73.7 "/>
<path fill="#39424F" d="M42.9,78.6h-2.7v-5.5h2.7V78.6z M40.6,78.2h2v-4.7h-2V78.2z"/>
<polygon fill="#39424F" points="38.2,77.9 37,77.9 37,77.5 37.8,77.5 37.8,74.1 37,74.1 37,73.7 38.2,73.7 "/>
<path fill="#39424F" d="M38.9,78.6h-2.7v-5.5h2.7V78.6z M36.5,78.2h2v-4.7h-2V78.2z"/>
<path fill="#3FAC9A" d="M49.4,79.3c0.3,0,0.5,0.3,0.5,0.6c0,0.3-0.3,0.6-0.5,0.6c-0.2,0-0.5-0.3-0.5-0.6S49.2,79.3,49.4,79.3z"/>
<path fill="#F2B85D" d="M45.4,79.3c0.3,0,0.5,0.3,0.5,0.6c0,0.3-0.3,0.6-0.5,0.6c-0.3,0-0.5-0.3-0.5-0.6S45.1,79.3,45.4,79.3z"/>
<path fill="#3FAC9A" d="M41.6,79.3c0.3,0,0.5,0.3,0.5,0.6c0,0.3-0.3,0.6-0.5,0.6c-0.3,0-0.5-0.3-0.5-0.6S41.3,79.3,41.6,79.3z"/>
<path fill="#3FAC9A" d="M37.5,79.3c0.3,0,0.5,0.3,0.5,0.6c0,0.3-0.3,0.6-0.5,0.6c-0.2,0-0.5-0.3-0.5-0.6S37.3,79.3,37.5,79.3z"/>
<path fill="#39424F" d="M36,83.1h15.3v19H36V83.1z"/>
<path fill="#A8B2C0" d="M47.5,83.1h3.4v19h-3.4V83.1z"/>
<path fill="#A8B2C0" d="M43.8,83.1h3.4v19h-3.4V83.1z"/>
<path fill="#A8B2C0" d="M40.1,83.1h3.4v19h-3.4V83.1z"/>
<path fill="#A8B2C0" d="M36.3,83.1h3.4v19h-3.4V83.1z"/>
<path fill="#39424F" d="M52.6,59.7v0.7h-8.1v-0.7H52.6z"/>
<path fill="#39424F" d="M52.6,58.3v0.7h-8.1v-0.7H52.6z"/>
<path fill="#39424F" d="M52.6,56.9v0.7h-8.1v-0.7H52.6z"/>
<path fill="#39424F" d="M52.6,55.6v0.7h-8.1v-0.7H52.6z"/>
<path fill="#39424F" d="M52.6,54.2v0.7h-8.1v-0.7H52.6z"/>
<path fill="#39424F" d="M52.6,52.9v0.7h-8.1v-0.7H52.6z"/>
<path fill="#39424F" d="M50.9,32.5v0.4h-5.5v-0.4H50.9z"/>
<path fill="#39424F" d="M50.9,31.8v0.4h-5.5v-0.4H50.9z"/>
<path fill="#39424F" d="M50.9,31.2v0.4h-5.5v-0.4H50.9z"/>
<path fill="#39424F" d="M50.9,30.5v0.4h-5.5v-0.4H50.9z"/>
<path fill="#929BAB" d="M48.6,86.1h1.3v16h-1.3V86.1z"/>
<path fill="#929BAB" d="M44.8,86.1h1.3v16h-1.3V86.1z"/>
<path fill="#929BAB" d="M41.1,86.1h1.3v16h-1.3V86.1z"/>
<path fill="#929BAB" d="M37.4,86.1h1.3v16h-1.3V86.1z"/>
<path fill="#7C869A" d="M48.6,88.2v-0.4h1.3v0.4H48.6z"/>
<path fill="#7C869A" d="M48.6,88.8v-0.4h1.3v0.4H48.6z"/>
<path fill="#7C869A" d="M48.6,89.5v-0.4h1.3v0.4H48.6z"/>
<path fill="#7C869A" d="M48.6,90.2v-0.3h1.3v0.4L48.6,90.2L48.6,90.2z"/>
<path fill="#7C869A" d="M48.6,90.8v-0.4h1.3v0.4H48.6z"/>
<path fill="#7C869A" d="M48.6,93.6v-0.4h1.3v0.4H48.6z"/>
<path fill="#7C869A" d="M48.6,94.2v-0.4h1.3v0.4H48.6z"/>
<path fill="#7C869A" d="M48.6,95v-0.4h1.3V95H48.6z"/>
<path fill="#7C869A" d="M48.6,97.3V97h1.3v0.4H48.6z"/>
<path fill="#7C869A" d="M48.6,98v-0.4h1.3V98H48.6z"/>
<path fill="#7C869A" d="M48.6,98.7v-0.3h1.3v0.4L48.6,98.7L48.6,98.7z"/>
<path fill="#7C869A" d="M48.6,99.3v-0.4h1.3v0.4H48.6z"/>
<path fill="#7C869A" d="M48.6,100.1v-0.4h1.3v0.4H48.6z"/>
<path fill="#7C869A" d="M48.6,100.7v-0.4h1.3v0.4H48.6z"/>
<path fill="#7C869A" d="M44.8,88.2v-0.4h1.3v0.4H44.8z"/>
<path fill="#7C869A" d="M44.8,88.8v-0.4h1.3v0.4H44.8z"/>
<path fill="#7C869A" d="M44.8,89.5v-0.4h1.3v0.4H44.8z"/>
<path fill="#7C869A" d="M44.8,90.2v-0.3h1.3v0.4L44.8,90.2L44.8,90.2z"/>
<path fill="#7C869A" d="M44.8,90.8v-0.4h1.3v0.4H44.8z"/>
<path fill="#7C869A" d="M44.8,93.6v-0.4h1.3v0.4H44.8z"/>
<path fill="#7C869A" d="M44.8,94.2v-0.4h1.3v0.4H44.8z"/>
<path fill="#7C869A" d="M44.8,95v-0.4h1.3V95H44.8z"/>
<path fill="#7C869A" d="M44.8,97.3V97h1.3v0.4H44.8z"/>
<path fill="#7C869A" d="M44.8,98v-0.4h1.3V98H44.8z"/>
<path fill="#7C869A" d="M44.8,98.7v-0.3h1.3v0.4L44.8,98.7L44.8,98.7z"/>
<path fill="#7C869A" d="M44.8,99.3v-0.4h1.3v0.4H44.8z"/>
<path fill="#7C869A" d="M44.8,100.1v-0.4h1.3v0.4H44.8z"/>
<path fill="#7C869A" d="M44.8,100.7v-0.4h1.3v0.4H44.8z"/>
<path fill="#7C869A" d="M41.1,88.2v-0.4h1.3v0.4H41.1z"/>
<path fill="#7C869A" d="M41.1,88.8v-0.4h1.3v0.4H41.1z"/>
<path fill="#7C869A" d="M41.1,89.5v-0.4h1.3v0.4H41.1z"/>
<path fill="#7C869A" d="M41.1,90.2v-0.3h1.3v0.4L41.1,90.2L41.1,90.2z"/>
<path fill="#7C869A" d="M41.1,90.8v-0.4h1.3v0.4H41.1z"/>
<path fill="#7C869A" d="M41.1,93.6v-0.4h1.3v0.4H41.1z"/>
<path fill="#7C869A" d="M41.1,94.2v-0.4h1.3v0.4H41.1z"/>
<path fill="#7C869A" d="M41.1,95v-0.4h1.3V95H41.1z"/>
<path fill="#7C869A" d="M41.1,97.3V97h1.3v0.4H41.1z"/>
<path fill="#7C869A" d="M41.1,98v-0.4h1.3V98H41.1z"/>
<path fill="#7C869A" d="M41.1,98.7v-0.3h1.3v0.4L41.1,98.7L41.1,98.7z"/>
<path fill="#7C869A" d="M41.1,99.3v-0.4h1.3v0.4H41.1z"/>
<path fill="#7C869A" d="M41.1,100.1v-0.4h1.3v0.4H41.1z"/>
<path fill="#7C869A" d="M41.1,100.7v-0.4h1.3v0.4H41.1z"/>
<path fill="#7C869A" d="M48.6,85.1v-0.4h1.3v0.4H48.6z"/>
<path fill="#7C869A" d="M44.8,85.1v-0.4h1.3v0.4H44.8z"/>
<path fill="#7C869A" d="M41.1,85.1v-0.4h1.3v0.4H41.1z"/>
<path fill="#7C869A" d="M37.4,88.2v-0.4h1.3v0.4H37.4z"/>
<path fill="#7C869A" d="M37.4,88.8v-0.4h1.3v0.4H37.4z"/>
<path fill="#7C869A" d="M37.4,89.5v-0.4h1.3v0.4H37.4z"/>
<path fill="#7C869A" d="M37.4,90.2v-0.3h1.3v0.4L37.4,90.2L37.4,90.2z"/>
<path fill="#7C869A" d="M37.4,90.8v-0.4h1.3v0.4H37.4z"/>
<path fill="#7C869A" d="M37.4,93.6v-0.4h1.3v0.4H37.4z"/>
<path fill="#7C869A" d="M37.4,94.2v-0.4h1.3v0.4H37.4z"/>
<path fill="#7C869A" d="M37.4,95v-0.4h1.3V95H37.4z"/>
<path fill="#7C869A" d="M37.4,97.3V97h1.3v0.4H37.4z"/>
<path fill="#7C869A" d="M37.4,98v-0.4h1.3V98H37.4z"/>
<path fill="#7C869A" d="M37.4,98.7v-0.3h1.3v0.4L37.4,98.7L37.4,98.7z"/>
<path fill="#7C869A" d="M37.4,99.3v-0.4h1.3v0.4H37.4z"/>
<path fill="#7C869A" d="M37.4,100.1v-0.4h1.3v0.4H37.4z"/>
<path fill="#7C869A" d="M37.4,100.7v-0.4h1.3v0.4H37.4z"/>
<path fill="#7C869A" d="M37.4,85.1v-0.4h1.3v0.4H37.4z"/>
</svg>